<?xml version="1.0" encoding="UTF-8" standalone="no"?>
<!-- Created with Inkscape (http://www.inkscape.org/) -->

<svg
   xmlns:dc="http://purl.org/dc/elements/1.1/"
   xmlns:cc="http://creativecommons.org/ns#"
   xmlns:rdf="http://www.w3.org/1999/02/22-rdf-syntax-ns#"
   xmlns:svg="http://www.w3.org/2000/svg"
   xmlns="http://www.w3.org/2000/svg"
   xmlns:sodipodi="http://sodipodi.sourceforge.net/DTD/sodipodi-0.dtd"
   xmlns:inkscape="http://www.inkscape.org/namespaces/inkscape"
   width="103.6295mm"
   height="106.78599mm"
   viewBox="0 0 103.6295 106.78599"
   version="1.1"
   id="svg896"
   inkscape:version="0.92.4 5da689c313, 2019-01-14"
   sodipodi:docname="logo.svg"
   inkscape:export-filename="/home/merlin/Rastergrafik.png"
   inkscape:export-xdpi="62.75"
   inkscape:export-ydpi="62.75">
  <defs
     id="defs890" />
  <sodipodi:namedview
     id="base"
     pagecolor="#ffffff"
     bordercolor="#666666"
     borderopacity="1.0"
     inkscape:pageopacity="0.0"
     inkscape:pageshadow="2"
     inkscape:zoom="0.98994949"
     inkscape:cx="84.086297"
     inkscape:cy="160.00524"
     inkscape:document-units="mm"
     inkscape:current-layer="layer1"
     showgrid="false"
     inkscape:window-width="1920"
     inkscape:window-height="1149"
     inkscape:window-x="1920"
     inkscape:window-y="25"
     inkscape:window-maximized="1"
     fit-margin-top="0"
     fit-margin-left="0"
     fit-margin-right="0"
     fit-margin-bottom="0">
    <inkscape:grid
       type="xygrid"
       id="grid2108"
       originx="-31.666351"
       originy="-141.69758" />
  </sodipodi:namedview>
  <metadata
     id="metadata893">
    <rdf:RDF>
      <cc:Work
         rdf:about="">
        <dc:format>image/svg+xml</dc:format>
        <dc:type
           rdf:resource="http://purl.org/dc/dcmitype/StillImage" />
        <dc:title></dc:title>
      </cc:Work>
    </rdf:RDF>
  </metadata>
  <g
     inkscape:label="Ebene 1"
     inkscape:groupmode="layer"
     id="layer1"
     transform="translate(-31.666352,-48.516435)">
    <path
       d="m 79.010489,49.181042 c -3.819669,1.20606 -8.032731,-1.708908 -11.72976,1.045266 -7.957076,4.830323 -7.242689,15.009813 -8.628745,22.734676 -2.785048,1.541392 -0.672577,4.977404 -2.809903,7.078233 1.127984,4.000819 -3.583953,3.74906 -6.759662,4.36329 -5.776644,1.266496 -12.428256,0.161938 -17.416067,3.563356 0.822436,8.874723 11.981217,11.983214 19.894324,14.124437 21.845939,4.95872 45.079718,5.89695 67.220144,2.00371 6.81475,-1.38131 16.83521,-4.09574 16.50718,-11.983021 -1.56152,-7.58449 -11.93893,-9.46734 -19.03309,-8.023607 -3.61727,-7.777383 -2.37268,-16.562414 -5.48726,-24.48292 -5.6105,-10.924846 -20.260498,-12.207937 -31.757166,-10.42342 z"
       id="path4735"
       inkscape:connector-curvature="0"
       style="fill:#000000;fill-rule:evenodd;stroke-width:0.18671814px" />
    <path
       d="m 113.60407,84.693393 c -16.776827,4.796141 -57.066198,6.733348 -77.457786,2.860376 -1.412301,0.285941 -2.420916,0.634846 -2.62434,1.163546 0.576169,18.704205 95.377076,21.866505 99.698396,6.060129 2.59276,-6.190823 -7.07397,-11.721376 -18.7415,-8.823542 -0.32447,-0.104712 -0.62017,-0.57562 -0.87477,-1.260509 z"
       id="path1295"
       inkscape:connector-curvature="0"
       style="fill:#1ab311;fill-opacity:1;fill-rule:evenodd;stroke-width:0.18671814px" />
    <ellipse
       style="opacity:1;fill:#000000;fill-opacity:1;stroke:#151411;stroke-width:2.84961724;stroke-linecap:square;stroke-linejoin:miter;stroke-miterlimit:4;stroke-dasharray:none;stroke-opacity:1;paint-order:normal"
       id="path2350"
       cx="84.099701"
       cy="-115.76042"
       rx="36.677868"
       ry="34.221024"
       transform="scale(1,-1)" />
    <ellipse
       style="opacity:1;fill:#ff2e00;fill-opacity:1;stroke:#151411;stroke-width:2.17333245;stroke-linecap:square;stroke-linejoin:miter;stroke-miterlimit:4;stroke-dasharray:none;stroke-opacity:1;paint-order:normal"
       id="circle2112"
       cx="84.480316"
       cy="90.497231"
       rx="15.061858"
       ry="9.0142393" />
    <ellipse
       cy="49.173035"
       cx="97.844437"
       id="circle2126"
       style="opacity:1;fill:#ff2e00;fill-opacity:1;stroke:#151411;stroke-width:1.70481575;stroke-linecap:square;stroke-linejoin:miter;stroke-miterlimit:4;stroke-dasharray:none;stroke-opacity:1;paint-order:normal"
       rx="4.9998908"
       ry="6.0393252"
       transform="rotate(31.231625)" />
    <path
       d="M 85.584599,50.077943 C 80.686843,50.279384 76.74974,51.139045 75.723446,51.435411 74.715133,50.908535 73.259528,49.849695 69.546969,50.92636 60.448608,53.091824 61.05377,71.245733 59.420732,80.330099 76.78557,79.161429 96.209892,80.120859 112.96786,82.2451 111.78596,76.151607 111.24374,64.334556 109.3097,60.404399 104.62827,51.266343 93.747552,49.742209 85.584599,50.077943 Z"
       id="path2102"
       inkscape:connector-curvature="0"
       style="fill:#1ab311;fill-opacity:1;fill-rule:evenodd;stroke-width:0.18671814px" />
    <path
       id="path1294"
       d="m 68.328275,81.934797 c -5.184224,0.0912 -8.749385,0.365037 -9.424109,0.855267 -0.143004,0.103882 -0.340309,0.20827 -0.55567,0.313044 -0.0663,0.190656 -0.122448,0.422131 -0.194496,0.592533 -7.857344,3.463728 -24.621425,3.122407 -25.740626,4.84785 27.915606,8.958596 81.363916,-1.057679 85.466666,-3.098989 0.68306,-3.035285 -37.317947,-3.724919 -49.551765,-3.509705 z"
       inkscape:connector-curvature="0"
       style="fill:#000000;fill-rule:evenodd;stroke-width:1.49374509" />
    <ellipse
       transform="matrix(-0.8550782,0.51849906,0.51849906,0.8550782,0,0)"
       ry="6.0393252"
       rx="4.9998908"
       style="opacity:1;fill:#ff2e00;fill-opacity:1;stroke:#151411;stroke-width:1.70481575;stroke-linecap:square;stroke-linejoin:miter;stroke-miterlimit:4;stroke-dasharray:none;stroke-opacity:1;paint-order:normal"
       id="ellipse2354"
       cx="-43.550655"
       cy="135.13268" />
    <path
       d="m 67.75763,82.310496 c -4.911781,0.07611 -8.289585,0.30477 -8.928849,0.71406 -0.135489,0.08673 -0.322431,0.173888 -0.526471,0.261341 -0.06283,0.159198 -0.116006,0.352438 -0.184275,0.494728 -7.444425,2.891885 -20.19126,2.545127 -23.690945,3.985675 29.365889,7.327456 82.53544,-2.917249 80.13887,-2.340206 0.15929,-2.410592 -35.217427,-3.295285 -46.80833,-3.115598 z"
       id="path1306"
       inkscape:connector-curvature="0"
       style="fill:#1ab311;fill-opacity:1;fill-rule:evenodd;stroke-width:0.18671814px" />
    <path
       d="m 70.982518,50.788445 c 7.874388,5.883485 -0.816256,22.43626 -4.033226,25.948803 -5.761763,7.376309 19.301846,6.849434 17.717375,0.658585 -8.210493,-3.424702 -8.354548,-12.513371 -8.066453,-24.631599 -1.326641,-1.300796 -3.16895,-0.395161 -5.617696,-1.975789 z"
       id="path1316"
       inkscape:connector-curvature="0"
       style="fill:#000000;fill-rule:evenodd;stroke-width:0.18671814px" />
    <path
       d="m 59.026547,74.595584 c 16.517007,-10.757128 40.524628,-0.404928 53.440533,4.117455 0.94213,0.847935 3.2739,6.417206 2.67235,6.318515 C 103.62812,83.30806 68.959566,82.0173 57.868201,84.124829 c -0.504156,0.197573 -0.989275,-4.14185 0.330452,-5.066031 1.56379,-1.227555 -0.114375,-3.397873 0.8279,-4.463214 z"
       id="path1310"
       inkscape:connector-curvature="0"
       style="fill:#000000;fill-rule:evenodd;stroke-width:0.18671814px" />
    <path
       stroke-miterlimit="4"
       id="path1312"
       d="M 81.788343,60.166993 C 79.917247,44.679515 103.74208,50.892567 103.75728,65.023864 100.55255,56.870933 85.793505,50.478078 81.788343,60.166993 Z"
       inkscape:connector-curvature="0"
       style="fill:#000000;fill-rule:evenodd;stroke-width:0.18671814;stroke-miterlimit:4" />
    <path
       stroke-miterlimit="4"
       id="path1314"
       d="m 71.110966,52.283829 c -3.871714,0.213926 -8.336703,10.713831 -7.110741,10.423585 2.059302,-5.931608 8.246022,-11.247728 8.597261,-3.582446 0.718418,-2.138421 1.202126,-5.731426 -1.48652,-6.841139 z"
       inkscape:connector-curvature="0"
       style="fill:#000000;fill-rule:evenodd;stroke-width:0.18671814;stroke-miterlimit:4" />
    <ellipse
       cy="144.65941"
       cx="83.804077"
       id="circle2116"
       style="opacity:1;fill:#ff2e00;fill-opacity:1;stroke:#151411;stroke-width:2.0181756;stroke-linecap:square;stroke-linejoin:miter;stroke-miterlimit:4;stroke-dasharray:none;stroke-opacity:1;paint-order:normal"
       rx="16.059521"
       ry="9.6339254" />
    <ellipse
       transform="rotate(-89.179452)"
       cy="86.386269"
       cx="-127.08472"
       id="ellipse2393"
       style="opacity:1;fill:#ff2e00;fill-opacity:1;stroke:#151411;stroke-width:2.19276881;stroke-linecap:square;stroke-linejoin:miter;stroke-miterlimit:4;stroke-dasharray:none;stroke-opacity:1;paint-order:normal"
       rx="6.4309616"
       ry="7.7679038" />
    <ellipse
       cy="113.2472"
       cx="99.81041"
       id="circle2114"
       style="opacity:1;fill:#ff2e00;fill-opacity:1;stroke:#151411;stroke-width:2.48278189;stroke-linecap:square;stroke-linejoin:miter;stroke-miterlimit:4;stroke-dasharray:none;stroke-opacity:1;paint-order:normal"
       rx="14.409609"
       ry="16.249414" />
    <ellipse
       cy="112.91389"
       cx="69.314529"
       id="circle2110"
       style="opacity:1;fill:#ff2e00;fill-opacity:1;stroke:#151411;stroke-width:2.45275569;stroke-linecap:square;stroke-linejoin:miter;stroke-miterlimit:4;stroke-dasharray:none;stroke-opacity:1;paint-order:normal"
       rx="14.424727"
       ry="15.84199" />
    <ellipse
       ry="7.7679038"
       rx="6.4309616"
       style="opacity:1;fill:#ff2e00;fill-opacity:1;stroke:#151411;stroke-width:2.19276881;stroke-linecap:square;stroke-linejoin:miter;stroke-miterlimit:4;stroke-dasharray:none;stroke-opacity:1;paint-order:normal"
       id="ellipse2342"
       cx="-24.831377"
       cy="147.56155"
       transform="rotate(-33.265528)" />
    <ellipse
       cy="113.28423"
       cx="49.475021"
       id="ellipse2344"
       style="opacity:1;fill:#ff2e00;fill-opacity:1;stroke:#151411;stroke-width:2.15147877;stroke-linecap:square;stroke-linejoin:miter;stroke-miterlimit:4;stroke-dasharray:none;stroke-opacity:1;paint-order:normal"
       rx="4.7765594"
       ry="10.068226" />
    <ellipse
       ry="10.068226"
       rx="4.7765594"
       style="opacity:1;fill:#ff2e00;fill-opacity:1;stroke:#151411;stroke-width:2.15147877;stroke-linecap:square;stroke-linejoin:miter;stroke-miterlimit:4;stroke-dasharray:none;stroke-opacity:1;paint-order:normal"
       id="ellipse2348"
       cx="119.21163"
       cy="114.60715" />
    <ellipse
       transform="matrix(0.83613753,0.54851986,0.54851986,-0.83613753,0,0)"
       cy="-54.995888"
       cx="164.55589"
       id="ellipse2356"
       style="opacity:1;fill:#ff2e00;fill-opacity:1;stroke:#151411;stroke-width:2.19276881;stroke-linecap:square;stroke-linejoin:miter;stroke-miterlimit:4;stroke-dasharray:none;stroke-opacity:1;paint-order:normal"
       rx="6.4309616"
       ry="7.7679038" />
    <g
       id="g2372"
       transform="translate(1.6819015,2.8996754)">
      <g
         transform="translate(-2.1247252,-10.685611)"
         id="g2124">
        <circle
           transform="scale(1,-1)"
           r="12.294206"
           cy="-115.66592"
           cx="69.453117"
           id="circle2106"
           style="opacity:1;fill:#f4eed7;fill-opacity:1;stroke:#ffb600;stroke-width:1.40276325;stroke-linecap:square;stroke-linejoin:miter;stroke-miterlimit:4;stroke-dasharray:none;stroke-opacity:1;paint-order:normal" />
        <circle
           style="opacity:1;fill:#f4eed7;fill-opacity:1;stroke:#ffb600;stroke-width:1.40276325;stroke-linecap:square;stroke-linejoin:miter;stroke-miterlimit:4;stroke-dasharray:none;stroke-opacity:1;paint-order:normal"
           id="circle2104"
           cx="101.2031"
           cy="-115.66592"
           r="12.294206"
           transform="scale(1,-1)" />
        <circle
           style="opacity:1;fill:#5ac5f3;fill-opacity:1;stroke:#ffb600;stroke-width:2.12400007;stroke-linecap:square;stroke-linejoin:miter;stroke-miterlimit:4;stroke-dasharray:none;stroke-opacity:1;paint-order:normal"
           id="path1463"
           cx="64.161461"
           cy="126.24925"
           r="18.615326" />
        <circle
           r="18.615326"
           cy="126.24925"
           cx="106.49477"
           id="circle1484"
           style="opacity:1;fill:#5ac5f3;fill-opacity:1;stroke:#ffb600;stroke-width:2.12400007;stroke-linecap:square;stroke-linejoin:miter;stroke-miterlimit:4;stroke-dasharray:none;stroke-opacity:1;paint-order:normal" />
      </g>
      <path
         sodipodi:nodetypes="cccc"
         inkscape:connector-curvature="0"
         id="path2358"
         d="m 51.593749,103.85417 c 14.566189,-4.009043 21.166667,0 21.166667,0 5.078121,6.01356 -1.322917,5.29166 -1.322917,5.29166 -6.815373,-3.34087 -19.84375,-5.29166 -19.84375,-5.29166 z"
         style="fill:#d6f2ff;fill-opacity:1;stroke:none;stroke-width:0.26458332px;stroke-linecap:butt;stroke-linejoin:miter;stroke-opacity:0.67536232" />
      <path
         style="fill:#d6f2ff;fill-opacity:1;stroke:none;stroke-width:0.26458332px;stroke-linecap:butt;stroke-linejoin:miter;stroke-opacity:0.67536232"
         d="m 93.927083,103.85417 c 14.566187,-4.00904 21.166667,0 21.166667,0 5.07812,6.01356 -1.32292,5.29166 -1.32292,5.29166 -6.81537,-3.34087 -19.843747,-5.29166 -19.843747,-5.29166 z"
         id="path2360"
         inkscape:connector-curvature="0"
         sodipodi:nodetypes="cccc" />
      <path
         sodipodi:nodetypes="ccccc"
         inkscape:connector-curvature="0"
         id="path2362"
         d="m 79.374999,101.20833 h 7.9375 c 0,1.76389 7e-6,14.89107 10e-7,6.61459 H 79.375 Z"
         style="fill:#ffb600;fill-opacity:1;stroke:none;stroke-width:0.26458332px;stroke-linecap:butt;stroke-linejoin:miter;stroke-opacity:1" />
    </g>
  </g>
</svg>
